HIERARCHY
ROOT RootJoint
{
    OFFSET   0.000000   0.000000   0.000000
    CHANNELS 6 Xposition Yposition Zposition Xrotation Yrotation Zrotation
    JOINT lHip
    {
        OFFSET   0.100000  -0.051395   0.000000
        CHANNELS 3 Xrotation Yrotation Zrotation
        JOINT lKnee
        {
            OFFSET   0.000000  -0.410000   0.000000
            CHANNELS 3 Xrotation Yrotation Zrotation
            JOINT lAnkle
            {
                OFFSET   0.000000  -0.390000   0.000000
                CHANNELS 3 Xrotation Yrotation Zrotation
                JOINT lToeJoint
                {
                    OFFSET   0.000000  -0.050000   0.130000
                    CHANNELS 3 Xrotation Yrotation Zrotation
                    End Site
                    {
                        OFFSET   0.010000   0.002000   0.060000
                    }
                }
            }
        }
    }
    JOINT rHip
    {
        OFFSET  -0.100000  -0.051395   0.000000
        CHANNELS 3 Xrotation Yrotation Zrotation
        JOINT rKnee
        {
            OFFSET   0.000000  -0.410000   0.000000
            CHANNELS 3 Xrotation Yrotation Zrotation
            JOINT rAnkle
            {
                OFFSET   0.000000  -0.390000   0.000000
                CHANNELS 3 Xrotation Yrotation Zrotation
                JOINT rToeJoint
                {
                    OFFSET   0.000000  -0.050000   0.130000
                    CHANNELS 3 Xrotation Yrotation Zrotation
                    End Site
                    {
                        OFFSET  -0.010000   0.002000   0.060000
                    }
                }
            }
        }
    }
    JOINT pelvis_lowerback
    {
        OFFSET   0.000000   0.093605   0.000000
        CHANNELS 3 Xrotation Yrotation Zrotation
        JOINT lowerback_torso
        {
            OFFSET   0.000000   0.100000   0.000000
            CHANNELS 3 Xrotation Yrotation Zrotation
            JOINT torso_head
            {
                OFFSET   0.000000   0.282350   0.000000
                CHANNELS 3 Xrotation Yrotation Zrotation
                End Site
                {
                    OFFSET   0.000000   0.192650   0.000000
                }
            }
            JOINT lTorso_Clavicle
            {
                OFFSET   0.001000   0.157500   0.000000
                CHANNELS 3 Xrotation Yrotation Zrotation
                JOINT lShoulder
                {
                    OFFSET   0.117647   0.000000   0.000000
                    CHANNELS 3 Xrotation Yrotation Zrotation
                    JOINT lElbow
                    {
                        OFFSET   0.245000   0.000000   0.000000
                        CHANNELS 3 Xrotation Yrotation Zrotation
                        JOINT lWrist
                        {
                            OFFSET   0.240000   0.000000   0.000000
                            CHANNELS 3 Xrotation Yrotation Zrotation
                            End Site
                            {
                                OFFSET   0.116353  -0.002500   0.000000
                            }
                        }
                    }
                }
            }
            JOINT rTorso_Clavicle
            {
                OFFSET  -0.001000   0.157500   0.000000
                CHANNELS 3 Xrotation Yrotation Zrotation
                JOINT rShoulder
                {
                    OFFSET  -0.117647   0.000000   0.000000
                    CHANNELS 3 Xrotation Yrotation Zrotation
                    JOINT rElbow
                    {
                        OFFSET  -0.245000   0.000000   0.000000
                        CHANNELS 3 Xrotation Yrotation Zrotation
                        JOINT rWrist
                        {
                            OFFSET  -0.240000   0.000000   0.000000
                            CHANNELS 3 Xrotation Yrotation Zrotation
                            End Site
                            {
                                OFFSET  -0.116353  -0.002500   0.000000
                            }
                        }
                    }
                }
            }
        }
    }
}
MOTION
Frames: 5
Frame Time:   0.010000
 -0.050125   0.843793   1.039602   0.192851 -54.878470   2.424889 -17.857139  10.516589   0.412809  33.582802   1.289171   5.332432  -1.181046   0.797485  -1.761660  -0.118737   0.159760  -0.145523 -12.411263 -12.719335  -0.292008  28.233591  -1.050124  -5.521776   0.605854  -0.843689   2.909467   0.166201   0.313708  -0.342938   1.775461  -0.128349   0.338064   6.217074   0.037837   0.904298  13.147193   2.400482  -1.877884   0.281520  -1.162785 -15.548464  16.231536 -26.569983 -47.261489   0.738849 -29.515074   6.059394   5.505452   2.072998  -2.064436  -0.728969   1.109659  16.972256  19.524718  24.903214  44.707239  -1.585762  29.241579  -4.597288   7.736712   3.383182  -2.218933
 -0.126245   0.821240   1.013095  -1.992075 -43.734343   1.415309 -18.808381  10.354157   0.199568  33.554548   0.435660   5.225478  -1.736611   0.751654  -2.210674   0.045155  -0.203911   0.213624 -12.030173 -12.727644  -1.031396  28.387388   0.055755  -5.556389   0.215395  -1.445563   3.430289   0.089134   0.226485  -0.436201   1.573302  -1.095937   0.347550   6.540357   0.175257   0.827626  11.665576  -0.648328  -1.238219   0.180549  -1.658966 -16.204458  17.577415 -25.630628 -46.996708   1.047982 -29.674748   6.106372   4.606940   1.764835  -2.005599  -1.426781   0.526470  17.383710  20.078053  24.906097  44.707552  -0.666301  29.825692  -4.393383   8.275430   2.843311  -3.145820
 -0.069679   0.846642   1.105750  -0.225157 -34.978507   1.738971 -17.888034  10.282867   0.756090  34.547071   1.131592   5.851817  -1.685631  -0.011086  -2.037824  -0.052410  -0.439113  -0.648728 -14.210956 -11.371494  -0.728050  29.710496  -0.177504  -5.523686   0.764596  -0.845738   3.007214   0.196046   0.218353   0.290704   1.896609  -0.346122  -0.086663   6.104491  -0.637736   0.904281  12.369583  -0.369159  -1.389552   0.038277  -1.227144 -15.310823  16.338167 -25.290645 -47.089250   1.028325 -30.569766   7.017607   4.777283   1.887355  -2.483275  -1.339625   0.759730  17.384424  19.174337  25.235933  45.621949  -1.109071  30.177134  -4.601112   7.659047   2.569752  -1.949800
  0.017757   0.856730   1.034175   0.259903 -47.168151   0.279151 -17.786149   9.203268  -0.166747  33.312198   0.135410   5.893964  -2.551328  -0.513757  -1.007752   0.129990   0.027092  -0.003856 -13.113992 -10.923185   0.109222  27.443050  -0.934692  -5.323529   0.073465  -0.700117   2.681826   0.198817  -0.095460  -0.125042   1.642571  -0.225099  -0.095874   6.407171  -0.951058   1.417029  12.205842   1.210444  -1.397001  -0.119674  -1.659918 -15.671047  15.996316 -26.838175 -47.349474   0.883552 -30.628930   6.978456   4.836518   1.000557  -2.741529  -1.091874   0.218674  17.085014  20.092911  25.013279  44.816767  -0.947768  29.301070  -3.800616   7.323288   3.101023  -2.290078
 -0.033803   0.838086   0.999356  -1.269238 -35.142046  -0.160294 -18.065704   9.067557   0.880678  33.648304  -0.697426   5.622642  -2.042848  -0.433621  -1.601280  -0.064386   0.071345   0.069498 -12.514210 -10.864805  -0.221861  27.408498   0.664989  -4.990391   0.199927   0.019674   3.846238   0.333884   0.224934   0.094294   2.217287  -0.300060   0.347626   6.237423  -0.542563   1.345786  12.172591   1.108901  -1.621085  -0.020055  -1.368407 -15.431858  17.225535 -26.659470 -47.224647   0.791265 -29.552816   5.806491   5.109070   1.475175  -2.496910  -1.501476   0.110018  17.246901  19.822905  25.148584  44.077327  -1.530210  29.757258  -4.178447   8.145877   3.980079  -2.906748
